<svg width="38" height="30" viewBox="0 0 38 30" fill="none" xmlns="http://www.w3.org/2000/svg">
<path d="M37.7204 7.39461L37.7186 7.37721C37.6865 7.07135 37.3661 4.35077 36.0435 2.967C34.5148 1.3394 32.7817 1.14168 31.9481 1.04687C31.8791 1.03905 31.8159 1.0318 31.7594 1.02426L31.693 1.0173C26.6694 0.652008 19.0826 0.602142 19.0066 0.601852L18.9999 0.601562L18.9933 0.601852C18.9173 0.602142 11.3305 0.652008 6.2616 1.0173L6.19463 1.02426C6.14071 1.03151 6.08127 1.03818 6.01662 1.04572C5.19268 1.14081 3.47812 1.33882 1.94505 3.02527C0.685361 4.39426 0.321227 7.05656 0.283828 7.35576L0.279479 7.39461C0.268172 7.52188 0 10.5518 0 13.5936V16.4371C0 19.4789 0.268172 22.5089 0.279479 22.6364L0.281508 22.6555C0.313689 22.9565 0.633756 25.6272 1.95026 27.0115C3.38767 28.5846 5.20515 28.7928 6.18274 28.9047C6.33727 28.9224 6.47034 28.9375 6.56109 28.9534L6.64893 28.9656C9.54954 29.2416 18.6439 29.3776 19.0295 29.3831L19.0411 29.3834L19.0527 29.3831C19.1286 29.3828 26.7152 29.3329 31.7388 28.9676L31.8052 28.9607C31.8687 28.9523 31.94 28.9447 32.0183 28.9366C32.8376 28.8496 34.5429 28.669 36.0548 27.0055C37.3145 25.6362 37.6789 22.9739 37.716 22.675L37.7204 22.6361C37.7317 22.5086 38.0001 19.4789 38.0001 16.4371V13.5936C37.9999 10.5518 37.7317 7.52217 37.7204 7.39461ZM35.773 16.4371C35.773 19.2525 35.5272 22.152 35.504 22.4181C35.4095 23.1513 35.0253 24.8357 34.4116 25.5028C33.4653 26.5439 32.4932 26.6471 31.7835 26.7222C31.6977 26.7312 31.6182 26.7399 31.5463 26.7489C26.6873 27.1003 19.387 27.1542 19.0507 27.1562C18.6735 27.1507 9.71218 27.0136 6.9 26.7524C6.75591 26.7289 6.60022 26.7109 6.43613 26.6924C5.60378 26.597 4.46441 26.4665 3.58829 25.5028L3.5677 25.4808C2.96468 24.8525 2.59156 23.2774 2.49676 22.4268C2.47907 22.2256 2.22684 19.2919 2.22684 16.4371V13.5936C2.22684 10.7814 2.47211 7.88515 2.49589 7.61349C2.60866 6.74983 3.00005 5.16746 3.58829 4.52791C4.56357 3.45522 5.5919 3.33635 6.27204 3.25778C6.33698 3.25024 6.39757 3.24329 6.45353 3.23604C11.3833 2.88292 18.7361 2.83044 18.9999 2.82841C19.2637 2.83015 26.614 2.88292 31.4999 3.23604C31.5599 3.24358 31.6255 3.25111 31.6959 3.25923C32.3955 3.33896 33.4528 3.45956 34.4232 4.49457L34.4321 4.50413C35.0352 5.13239 35.4083 6.73505 35.5031 7.60277C35.5199 7.79266 35.773 10.7327 35.773 13.5936V16.4371Z" fill="#4D4D4D"/>
</svg>
